<svg xmlns="http://www.w3.org/2000/svg" version="1.1" width="400" height="89.94" viewBox="0 0 1000 1000" preserveAspectRatio="xMidYMid meet">
<path d="M0 0 C330 0 660 0 1000 0 C1000 330 1000 660 1000 1000 C670 1000 340 1000 0 1000 C0 670 0 340 0 0 Z " fill="#3A415B" transform="translate(0,0)" />
<path d="M0 0 C8.84406942 5.3758069 14.82122554 10.62743476 18.5 20.4375 C20.18772788 29.02956922 19.22245538 37.51136766 14.8984375 45.2421875 C9.32763871 53.13663498 2.61475618 57.0491436 -6.8125 58.9375 C-14.84279026 60.07871976 -22.32827001 57.80771173 -29.11328125 53.46484375 C-35.26243411 48.56636605 -38.36056309 42.29331074 -40.8125 34.9375 C-41.65726 25.06350196 -40.29688571 17.6157582 -35.125 9.1875 C-25.33041961 -0.342362 -13.34433511 -3.71891306 0 0 Z " fill="#3A415B" transform="translate(416.8125,462.0625)" />
<path d="M0 0 C5.26041721 3.8929293 7.53430574 8.55075714 9.11328125 14.81640625 C9.84488451 20.90649127 9.76734142 27.06644572 9.80078125 33.19140625 C9.82994203 35.65103403 9.86451308 38.11048218 9.90327454 40.56997681 C9.92558276 42.09021803 9.94151018 43.61057041 9.95011902 45.13095093 C9.98452147 48.49648062 10.06773507 51.59781527 11.11328125 54.81640625 C8.73828125 55.00390625 8.73828125 55.00390625 6.11328125 54.81640625 C4.16818125 51.89875625 3.66051808 50.1910334 3.11328125 46.81640625 C2.42363281 47.4196875 1.73398437 48.02296875 1.0234375 48.64453125 C-6.42478632 54.20320567 -15.96885124 56.68096389 -25.19140625 56.23828125 C-30.75715052 55.36712128 -34.4660054 53.3099767 -38.32421875 49.25390625 C-41.01263097 45.05998319 -41.21951735 41.72518557 -40.88671875 36.81640625 C-39.26859578 31.96203734 -37.27067235 30.18099309 -32.83325195 27.76000977 C-29.81500331 26.29688033 -26.72276475 25.33559934 -23.51171875 24.37890625 C-22.83488037 24.17209229 -22.15804199 23.96527832 -21.46069336 23.75219727 C-17.69148259 22.60913609 -13.90640785 21.54516112 -10.1015625 20.52734375 C-9.32409668 20.31392334 -8.54663086 20.10050293 -7.74560547 19.88061523 C-6.23702519 19.46890722 -4.72428911 19.07208171 -3.20751953 18.69165039 C-0.90829477 18.10372621 -0.90829477 18.10372621 2.11328125 16.81640625 C3.31190371 14.91574466 3.31190371 14.91574466 3.11328125 12.81640625 C0.99070778 6.71400753 -3.37800968 2.94772953 -8.77734375 -0.33203125 C-17.7767729 -3.96513413 -29.24736996 -0.2467218 -37.88671875 2.81640625 C-44.46182761 5.82241781 -49.8820454 9.71334318 -53.88671875 15.81640625 C-55.07119807 19.36984421 -55.01627662 22.21918509 -55.01953125 25.96875 C-55.02096634 27.01356285 -55.02096634 27.01356285 -55.02243042 28.07948303 C-55.02311025 29.55128062 -55.0212697 31.02308123 -55.01708984 32.49487305 C-55.01174684 34.7420937 -55.01703728 36.98911375 -55.0234375 39.23632812 C-55.02277653 40.66796919 -55.02149496 42.09961013 -55.01953125 43.53125 C-55.01783936 45.48212524 -55.01783936 45.48212524 -55.01611328 47.47241211 C-54.99542242 50.96198021 -54.99542242 50.96198021 -53.88671875 54.81640625 C-56.85671875 54.81640625 -59.82671875 54.81640625 -62.88671875 54.81640625 C-62.88671875 53.82640625 -62.88671875 52.83640625 -62.88671875 51.81640625 C-62.22671875 51.81640625 -61.56671875 51.81640625 -60.88671875 51.81640625 C-60.88671875 34.65640625 -60.88671875 17.49640625 -60.88671875 -0.18359375 C-61.54671875 -0.18359375 -62.20671875 -0.18359375 -62.88671875 -0.18359375 C-62.88671875 -1.17359375 -62.88671875 -2.16359375 -62.88671875 -3.18359375 C-60.57671875 -3.18359375 -58.26671875 -3.18359375 -55.88671875 -3.18359375 C-55.88671875 2.09640625 -55.88671875 7.37640625 -55.88671875 12.81640625 C-55.22671875 12.81640625 -54.56671875 12.81640625 -53.88671875 12.81640625 C-53.65855469 12.06488281 -53.43039062 11.31335938 -53.1953125 10.5390625 C-50.05183399 3.9987505 -41.45041625 0.84440264 -34.94921875 -1.55859375 C-33.2706034 -2.12719689 -31.58359469 -2.67205579 -29.88671875 -3.18359375 C-28.97986328 -3.47363281 -28.97986328 -3.47363281 -28.0546875 -3.76953125 C-18.60672526 -5.57400692 -8.20877231 -5.14960251 0 0 Z " fill="#A17E46" transform="translate(778.88671875,465.18359375)" />
<path d="M0 0 C6.25255442 4.51779526 11.14503046 11.22255454 12.6328125 18.90234375 C12.6328125 21.21234375 12.6328125 23.52234375 12.6328125 25.90234375 C-5.1871875 25.90234375 -23.0071875 25.90234375 -41.3671875 25.90234375 C-38.30458641 38.15274811 -36.08013594 43.66250744 -26.3671875 50.90234375 C-20.16184809 52.97079022 -12.8205137 53.01128571 -6.8671875 50.15234375 C-3.94140106 48.445635 -1.58309977 46.48757473 0.6328125 43.90234375 C1.9528125 44.56234375 3.2728125 45.22234375 4.6328125 45.90234375 C0.90152389 51.74262158 -4.20286351 53.97544583 -10.7890625 55.44140625 C-20.07592913 56.71317461 -28.71579147 55.33495052 -36.359375 49.74609375 C-42.03559252 44.53369167 -45.99868054 37.73093708 -46.73828125 30.046875 C-47.02114324 20.13529958 -46.38665021 12.64523235 -39.60546875 4.88671875 C-28.60596544 -5.73349134 -13.29532067 -7.53401505 0 0 Z " fill="#3B415C" transform="translate(663.3671875,465.09765625)" />
<path d="M0 0 C3.36808723 3.22775026 5.8355939 6.33081867 6.1328125 11.15625 C6.13023437 11.9296875 6.12765625 12.703125 6.125 13.5 C6.12886719 14.66015625 6.12886719 14.66015625 6.1328125 15.84375 C6 18 6 18 5 21 C4.34 21 3.68 21 3 21 C2.76216797 20.11248047 2.76216797 20.11248047 2.51953125 19.20703125 C0.95796426 13.91840933 -0.43734034 10.39772528 -5 7 C-22.86425665 -1.55512291 -42.96942538 0.88049519 -61.22265625 7.09765625 C-73.83804228 12.00086953 -87.72976193 18.76102984 -94.4375 31.0625 C-97.37716146 37.76492813 -97.35228619 43.17837005 -95 50 C-94.01 50.33 -93.02 50.66 -92 51 C-92.33 51.66 -92.66 52.32 -93 53 C-93.99 52.34 -94.98 51.68 -96 51 C-96 50.34 -96 49.68 -96 49 C-96.61230469 48.7421875 -97.22460938 48.484375 -97.85546875 48.21875 C-101.53112129 46.12985457 -102.81881148 42.95929111 -104 39 C-104.58217142 30.44343397 -101.32112214 23.68576027 -96.125 17.125 C-74.96069515 -5.84821979 -26.93418522 -21.11884978 0 0 Z " fill="#BA9C5B" transform="translate(273,503)" />
<path d="M0 0 C3.03539555 3.39891598 4.81860272 7.25268316 6.2421875 11.5234375 C5.9296875 13.9609375 5.9296875 13.9609375 5.2421875 15.5234375 C1.2421875 10.7734375 1.2421875 10.7734375 1.2421875 8.5234375 C-0.09052683 7.85553426 -1.42402963 7.18920433 -2.7578125 6.5234375 C-3.55316406 6.12125 -4.34851563 5.7190625 -5.16796875 5.3046875 C-24.89863033 -4.22647156 -47.92833033 -1.60950933 -68.3203125 4.7109375 C-85.32688507 10.75892244 -104.75881354 19.9722694 -113.1328125 36.8984375 C-115.07801073 41.66167933 -115.54456959 46.41626978 -115.7578125 51.5234375 C-118.48612917 49.03236576 -119.57545356 47.15271003 -119.99609375 43.39453125 C-120.30465385 33.27700805 -116.64583018 24.8879847 -109.7578125 17.5234375 C-84.80876974 -6.43794952 -29.94481353 -25.15364336 0 0 Z " fill="#BEA15F" transform="translate(275.7578125,481.4765625)" />
<path d="M0 0 C4.47408574 3.46483372 5.97712641 5.98190934 6.69921875 11.578125 C6.15876065 20.46190507 0.46946598 25.98076345 -5.80078125 31.703125 C-6.46078125 31.373125 -7.12078125 31.043125 -7.80078125 30.703125 C-6.53125 29.20572917 -5.26171875 27.70833333 -3.9921875 26.2109375 C-2.71296605 24.69718421 -2.71296605 24.69718421 -1.80078125 22.703125 C-1.14078125 22.703125 -0.48078125 22.703125 0.19921875 22.703125 C0.13930469 20.74393532 0.05054737 18.78560971 -0.05078125 16.828125 C-0.0971875 15.73757813 -0.14359375 14.64703125 -0.19140625 13.5234375 C-0.48192256 10.64800391 -0.48192256 10.64800391 -2.47265625 9.5078125 C-3.2409375 9.24226562 -4.00921875 8.97671875 -4.80078125 8.703125 C-5.66832031 8.1771875 -6.53585938 7.65125 -7.4296875 7.109375 C-11.94491769 5.22584908 -15.8900009 5.1685507 -20.73828125 5.203125 C-22.13119385 5.21170532 -22.13119385 5.21170532 -23.55224609 5.22045898 C-36.79032499 5.55957486 -49.9079678 9.98649043 -59.55078125 19.4140625 C-63.08785849 23.5339536 -64.09271375 26.21493793 -64.0234375 31.66796875 C-63.7022156 34.60404962 -62.619942 36.41232998 -60.80078125 38.703125 C-57.11343367 41.16135672 -54.10378154 41.71555116 -49.80078125 42.703125 C-49.80078125 43.033125 -49.80078125 43.363125 -49.80078125 43.703125 C-58.50704133 43.50319001 -64.98809956 41.42048964 -71.30078125 35.265625 C-73.79360051 31.00705876 -74.06101818 28.02796757 -73.11328125 23.203125 C-68.8167478 11.74570247 -59.49707759 6.25842344 -48.875 1.3515625 C-34.08185092 -5.07697242 -14.55034386 -8.88380481 0 0 Z " fill="#B89958" transform="translate(261.80078125,522.296875)" />
<path d="M0 0 C0.11698258 3.20802233 0.18750607 6.41549025 0.25 9.625 C0.28351562 10.52863281 0.31703125 11.43226563 0.3515625 12.36328125 C0.4355918 18.11928844 -0.08016022 21.46835219 -4 26 C-11.17201546 31.83768701 -19.14076459 33.65405695 -28.25390625 33.421875 C-33.25963996 32.65285759 -35.36453567 30.15583934 -38.375 26.1875 C-39.59718034 21.9098688 -39.91457472 18.22241656 -38.21875 14.1015625 C-33.86992164 7.71770549 -26.17056869 6.42414387 -19.12353516 4.56738281 C-17.05364115 4.01433226 -15.00168806 3.4189705 -12.94921875 2.8046875 C-3.50546329 0 -3.50546329 0 0 0 Z " fill="#3A415B" transform="translate(783,485)" />
<path d="M0 0 C2.20733159 2.20733159 3.09380667 4.03427639 4 7 C3.45601563 6.7215625 2.91203125 6.443125 2.3515625 6.15625 C-21.12628497 -5.387675 -45.58900094 -3.8081976 -69.94921875 4.4921875 C-81.67322929 8.72784811 -92.27053493 14.14815099 -102 22 C-102.59039062 22.42796875 -103.18078125 22.8559375 -103.7890625 23.296875 C-109.41273149 27.50741691 -112.99863862 33.75660203 -116 40 C-116.66 40 -117.32 40 -118 40 C-117.84166532 30.34158438 -113.40537947 23.49005512 -107 16.4375 C-80.59867512 -8.13286051 -31.58008229 -21.05338819 0 0 Z " fill="#C2A764" transform="translate(269,461)" />
<path d="M0 0 C2.31 0 4.62 0 7 0 C7.33 18.48 7.66 36.96 8 56 C11.63 52.7 15.26 49.4 19 46 C26.37546125 39.53228782 26.37546125 39.53228782 29.64453125 36.74609375 C30.54558594 35.96363281 31.44664062 35.18117188 32.375 34.375 C33.62410156 33.30378906 33.62410156 33.30378906 34.8984375 32.2109375 C37.10451785 29.89004256 38.03373601 28.02621138 39 25 C41.97 25 44.94 25 48 25 C48 25.66 48 26.32 48 27 C47.154375 27.350625 46.30875 27.70125 45.4375 28.0625 C41.91622669 30.04721769 39.79898809 32.09049701 37.046875 34.9765625 C33.81781071 38.16865277 30.25881633 40.93718432 26.73046875 43.7890625 C24.25578337 45.792885 21.79998183 47.81137094 19.375 49.875 C18.74335937 50.40867187 18.11171875 50.94234375 17.4609375 51.4921875 C15.74390468 53.04655749 15.74390468 53.04655749 15 56 C15.55816406 56.24878906 16.11632812 56.49757813 16.69140625 56.75390625 C19.4004423 58.21614398 21.5696432 59.96844013 23.9375 61.9375 C24.89785156 62.7315625 25.85820313 63.525625 26.84765625 64.34375 C29.06126402 66.19811045 31.25164111 68.07727403 33.43359375 69.96875 C34.29319702 70.70943726 34.29319702 70.70943726 35.17016602 71.46508789 C36.28394073 72.42702048 37.3927539 73.3947362 38.49584961 74.36889648 C41.51023281 76.97160512 44.20030657 78.77316172 48 80 C48 80.99 48 81.98 48 83 C43.60465444 83.54941819 41.0427561 83.41306174 37.4375 80.75 C35.94021615 79.52175934 34.4643991 78.26726845 33 77 C31.87559845 76.04616908 30.75054566 75.09310557 29.625 74.140625 C27.22882562 72.10449755 24.8421124 70.05816541 22.46484375 68 C21.89749512 67.51402344 21.33014648 67.02804687 20.74560547 66.52734375 C19.52558712 65.45987036 18.32816337 64.36626542 17.14892578 63.25390625 C16.54419434 62.69574219 15.93946289 62.13757813 15.31640625 61.5625 C14.7757251 61.04816406 14.23504395 60.53382813 13.67797852 60.00390625 C11.72646142 58.56815052 11.72646142 58.56815052 8 60 C7.67 66.6 7.34 73.2 7 80 C7.66 80 8.32 80 9 80 C9 80.66 9 81.32 9 82 C6.03 82 3.06 82 0 82 C0 81.34 0 80.68 0 80 C0.66 80 1.32 80 2 80 C1.89247081 70.15984446 1.77983168 60.31976198 1.66066074 50.47974014 C1.60548624 45.91067139 1.55207498 41.34159618 1.50268555 36.77246094 C1.45496128 32.36336483 1.40261556 27.95434563 1.34705925 23.54534149 C1.32667222 21.86285059 1.30795316 20.18033862 1.29092598 18.49781036 C1.26680103 16.1420175 1.23675768 13.78636914 1.20532227 11.43066406 C1.19668907 10.38625153 1.19668907 10.38625153 1.18788147 9.32073975 C1.13862539 6.07531154 0.98547969 3.10629667 0 0 Z " fill="#96703C" transform="translate(802,437)" />
<path d="M0 0 C6.25255442 4.51779526 11.14503046 11.22255454 12.6328125 18.90234375 C12.6328125 21.21234375 12.6328125 23.52234375 12.6328125 25.90234375 C-5.1871875 25.90234375 -23.0071875 25.90234375 -41.3671875 25.90234375 C-38.30458641 38.15274811 -36.08013594 43.66250744 -26.3671875 50.90234375 C-20.16184809 52.97079022 -12.8205137 53.01128571 -6.8671875 50.15234375 C-3.94140106 48.445635 -1.58309977 46.48757473 0.6328125 43.90234375 C1.9528125 44.56234375 3.2728125 45.22234375 4.6328125 45.90234375 C0.90152389 51.74262158 -4.20286351 53.97544583 -10.7890625 55.44140625 C-20.07592913 56.71317461 -28.71579147 55.33495052 -36.359375 49.74609375 C-42.03559252 44.53369167 -45.99868054 37.73093708 -46.73828125 30.046875 C-47.02114324 20.13529958 -46.38665021 12.64523235 -39.60546875 4.88671875 C-28.60596544 -5.73349134 -13.29532067 -7.53401505 0 0 Z M-33.796875 5.03125 C-38.31615142 10.41615896 -40.22386862 16.04243048 -41.3671875 22.90234375 C-25.1971875 22.90234375 -9.0271875 22.90234375 7.6328125 22.90234375 C5.62387821 13.86213945 3.58112563 7.55695571 -3.9296875 1.96484375 C-13.91998331 -4.37473127 -25.12182439 -3.05873906 -33.796875 5.03125 Z " fill="#D9CB85" transform="translate(663.3671875,465.09765625)" />
<path d="M0 0 C8.84406942 5.3758069 14.82122554 10.62743476 18.5 20.4375 C20.18772788 29.02956922 19.22245538 37.51136766 14.8984375 45.2421875 C9.32763871 53.13663498 2.61475618 57.0491436 -6.8125 58.9375 C-14.84279026 60.07871976 -22.32827001 57.80771173 -29.11328125 53.46484375 C-35.26243411 48.56636605 -38.36056309 42.29331074 -40.8125 34.9375 C-41.65726 25.06350196 -40.29688571 17.6157582 -35.125 9.1875 C-25.33041961 -0.342362 -13.34433511 -3.71891306 0 0 Z M-29.30859375 9.88671875 C-34.67688435 17.20711502 -36.57586924 26.00397797 -35.25 34.875 C-33.55031431 42.32835145 -29.24795497 48.75445427 -22.8125 52.9375 C-21.5440625 53.80375 -21.5440625 53.80375 -20.25 54.6875 C-13.88643455 57.0015238 -6.70084474 57.16941534 -0.4375 54.375 C6.38139418 50.32893416 11.21819292 43.58369229 13.1875 35.9375 C14.3051356 26.42192959 13.58849698 18.93397609 8.1875 10.9375 C7.64609375 10.04611328 7.64609375 10.04611328 7.09375 9.13671875 C3.3658775 3.77124512 -2.72201813 1.67984671 -8.921875 0.5546875 C-16.98054883 0.07116707 -23.99540238 4.12973414 -29.30859375 9.88671875 Z " fill="#9E7A45" transform="translate(416.8125,462.0625)" />
<path d="M0 0 C2.4375 1.6875 2.4375 1.6875 4.4375 4.6875 C4.57568192 8.28023003 4.22434212 10.66053167 2.00390625 13.55859375 C-5.76302518 21.06716571 -15.3448487 23.13541517 -25.87109375 23.12109375 C-29.06289908 22.60688418 -30.95947203 21.58507614 -33.5625 19.6875 C-35.5625 16.6875 -35.5625 16.6875 -35.6875 13.4375 C-34.07370488 8.05818295 -31.24932288 5.64605694 -26.5625 2.6875 C-18.09625207 -1.31045041 -8.97998583 -3.30841583 0 0 Z " fill="#B99C5E" transform="translate(246.5625,540.3125)" />
<path d="M0 0 C1.98 0 3.96 0 6 0 C6.0093457 1.16982422 6.01869141 2.33964844 6.02832031 3.54492188 C6.06840062 7.913789 6.13420859 12.28196523 6.20751953 16.65039062 C6.23562497 18.53571654 6.25689106 20.42115799 6.27099609 22.30664062 C6.29257089 25.027941 6.33929349 27.74786731 6.390625 30.46875 C6.39185364 31.30241089 6.39308228 32.13607178 6.39434814 32.99499512 C6.53633939 38.757316 7.78174325 43.17180965 11 48 C16.85880636 53.56586604 21.70585669 54.56056275 29.65625 54.453125 C34.73594749 53.76475478 38.39106066 51.6006809 42 48 C43.66870154 45.17036278 44.25826978 43.05343191 44.31884766 39.78222656 C44.33871735 38.96167786 44.35858704 38.14112915 44.37905884 37.29571533 C44.39638565 35.98144562 44.39638565 35.98144562 44.4140625 34.640625 C44.43342865 33.73624695 44.4527948 32.8318689 44.4727478 31.90008545 C44.53243831 29.01681901 44.57888686 26.13351242 44.625 23.25 C44.66318947 21.29295152 44.70224177 19.33591967 44.7421875 17.37890625 C44.83813125 12.58607289 44.92220127 7.79316085 45 3 C44.34 3 43.68 3 43 3 C43 2.01 43 1.02 43 0 C45.31 0 47.62 0 50 0 C50.01030746 0.66763367 50.02061493 1.33526733 50.03123474 2.02313232 C50.13933708 8.96604126 50.25393227 15.90882139 50.37231445 22.8515625 C50.41565128 25.44333199 50.45732725 28.03512979 50.49731445 30.62695312 C50.55504702 34.35034728 50.6187333 38.07359904 50.68359375 41.796875 C50.70030624 42.95741394 50.71701874 44.11795288 50.73423767 45.31365967 C50.7641555 46.93488739 50.7641555 46.93488739 50.79467773 48.58886719 C50.81799416 50.01449982 50.81799416 50.01449982 50.84178162 51.46893311 C50.98634656 53.78158175 51.34999254 55.7827227 52 58 C49.625 58.125 49.625 58.125 47 58 C44.64046906 55.64046906 44.50858587 54.22104383 44 51 C43.195625 51.763125 42.39125 52.52625 41.5625 53.3125 C36.42180129 57.57020811 29.80925876 59.69936387 23.109375 59.41796875 C14.79406057 57.77030459 8.55815752 52.77543424 3.90307617 45.90527344 C1.50027933 41.61099638 1.41434834 37.72840342 1.42578125 32.890625 C1.41161667 32.0419989 1.39745209 31.1933728 1.38285828 30.31903076 C1.34119675 27.62922236 1.32575996 24.9400846 1.3125 22.25 C1.28340603 19.54594406 1.24886456 16.84205525 1.21000671 14.13812256 C1.18758463 12.46099435 1.17172558 10.78376258 1.16316223 9.10650635 C1.13266544 5.8203622 1.04643133 3.139294 0 0 Z " fill="#C5AD6A" transform="translate(448,462)" />
<path d="M0 0 C2.5 2.6875 2.5 2.6875 4 5 C2.02 5.99 2.02 5.99 0 7 C-0.886875 6.21625 -1.77375 5.4325 -2.6875 4.625 C-7.40547381 0.75187266 -11.43681524 -0.45681024 -17.515625 -0.32421875 C-21.95450645 0.25506924 -26.10843176 1.80041795 -30 4 C-32.33984442 6.87648225 -32.33984442 6.87648225 -31.875 10.4375 C-30.87425942 14.51194379 -30.16756837 15.36373304 -27 18 C-24.40229378 19.524146 -21.71785707 20.83007897 -19 22.125 C-18.2884375 22.47175781 -17.576875 22.81851562 -16.84375 23.17578125 C-15.48596787 23.83694009 -14.12667608 24.49501106 -12.765625 25.14941406 C-10.83377222 26.08007986 -8.91394434 27.03305937 -7 28 C-7 28.66 -7 29.32 -7 30 C-6.278125 30.0825 -5.55625 30.165 -4.8125 30.25 C-0.16689566 31.48882782 2.37592538 34.06388807 5 38 C5.7432541 41.14359931 5.75708325 43.85679918 5 47 C0.888625 52.69267308 -5.20826245 55.76714002 -12 57 C-19.92410675 57.94194434 -26.86536792 56.60347127 -34 53 C-35.8125 51.36328125 -35.8125 51.36328125 -37 50 C-36.34 48.68 -35.68 47.36 -35 46 C-34.34 46 -33.68 46 -33 46 C-31.33333333 47.66666667 -29.66666667 49.33333333 -28 51 C-22.94262126 54.27834507 -16.77977958 53.46727074 -11 53 C-7.5221972 51.80075766 -5.74344862 50.67150198 -3.0625 48.25 C-1.37525037 44.67700079 -1.76026877 42.7191937 -3 39 C-5.38591588 36.81027349 -8.12976127 35.4668097 -11 34 C-13.00076331 32.89721707 -15.00075184 31.7930274 -17 30.6875 C-18.66534383 29.78920992 -20.33154605 28.89250018 -22 28 C-22 27.34 -22 26.68 -22 26 C-23.2375 25.690625 -23.2375 25.690625 -24.5 25.375 C-29.96273422 23.22892584 -34.37973332 20.07596668 -38 15.4375 C-39.20805692 12.49286126 -39.67332819 11.14219822 -39 8 C-35.9340988 2.67374812 -31.71611427 -0.33063387 -25.98046875 -2.34375 C-17.34083755 -4.24605412 -7.86423871 -4.30307401 0 0 Z " fill="#926733" transform="translate(359,464)" />
<path d="M0 0 C2.42242459 1.40046421 4.26958873 2.95390839 6 5.15625 C5.67 6.14625 5.34 7.13625 5 8.15625 C2.22978486 7.74584776 1.00952783 7.1646569 -1.125 5.28125 C-6.71191467 1.15179133 -12.65535063 -0.35468295 -19.5625 0.46875 C-26.68237877 2.08460901 -31.61747806 6.69828413 -35.6875 12.60546875 C-39.43191528 19.88256154 -39.33967974 30.36094775 -37.1640625 38.1484375 C-34.44355918 44.15545491 -30.64310904 47.83545422 -25 51.15625 C-24.37738281 51.53007813 -23.75476563 51.90390625 -23.11328125 52.2890625 C-18.09763738 54.34723799 -11.69081761 53.99821551 -6.578125 52.3984375 C-2.70259894 50.54809235 0.06705992 48.31480085 3 45.15625 C3.66 45.15625 4.32 45.15625 5 45.15625 C5.495 47.13625 5.495 47.13625 6 49.15625 C-1.31542422 55.04039557 -9.01906327 57.85635577 -18.4921875 57.5 C-26.68636527 56.37681052 -33.64996592 52.43362332 -39 46.15625 C-44.21650418 37.85136772 -45.90374295 29.90095656 -45 20.15625 C-43.2124163 12.41384924 -39.21097983 7.01945844 -33 2.15625 C-22.79757528 -4.11796841 -10.9991231 -5.06538564 0 0 Z " fill="#DAD08C" transform="translate(598,463.84375)" />
<path d="M0 0 C3.11905047 2.57660691 4.7181368 4.1544104 6 8 C6.39308695 12.79566077 6.48270142 15.06907584 4.25 19.375 C1.0220747 23.14091285 -0.50826939 23.86438813 -5.4375 24.3125 C-9.31775666 23.97212661 -11.02483472 23.4793044 -14 21 C-16.56885511 17.19100795 -17.65786097 13.67237922 -17.48828125 9.03125 C-16.56924448 5.20805703 -14.03733807 2.40339824 -11 0 C-7.1160836 -1.36585665 -3.99101083 -0.98024827 0 0 Z " fill="#4D5160" transform="translate(573,540)" />
<path d="M0 0 C2.31 0 4.62 0 7 0 C7 5.28 7 10.56 7 16 C7.66 16 8.32 16 9 16 C9.22816406 15.24847656 9.45632813 14.49695313 9.69140625 13.72265625 C13.17743767 6.46962969 23.30956148 3.19106688 30.4921875 0.62890625 C33.09322756 -0.0233795 35.32974755 -0.11963497 38 0 C38 0.66 38 1.32 38 2 C37.02160156 2.29132813 36.04320312 2.58265625 35.03515625 2.8828125 C24.50509756 6.12893092 15.59824477 9.7212183 9 19 C7.81552068 22.55343796 7.87044213 25.40277884 7.8671875 29.15234375 C7.86575241 30.1971566 7.86575241 30.1971566 7.86428833 31.26307678 C7.8636085 32.73487437 7.86544905 34.20667498 7.86962891 35.6784668 C7.87497191 37.92568745 7.86968147 40.1727075 7.86328125 42.41992188 C7.86394222 43.85156294 7.86522379 45.28320388 7.8671875 46.71484375 C7.86887939 48.66571899 7.86887939 48.66571899 7.87060547 50.65600586 C7.89129633 54.14557396 7.89129633 54.14557396 9 58 C6.03 58 3.06 58 0 58 C0 57.01 0 56.02 0 55 C0.66 55 1.32 55 2 55 C2 37.84 2 20.68 2 3 C1.34 3 0.68 3 0 3 C0 2.01 0 1.02 0 0 Z " fill="#B89C5E" transform="translate(716,462)" />
<path d="M0 0 C1.32 0 2.64 0 4 0 C4 4.95 4 9.9 4 15 C6.31 15 8.62 15 11 15 C11 15.66 11 16.32 11 17 C8.69 17 6.38 17 4 17 C4 34.49 4 51.98 4 70 C4.66 70 5.32 70 6 70 C6 70.99 6 71.98 6 73 C3.625 73.125 3.625 73.125 1 73 C-1 71 -1 71 -1.24050903 68.70944214 C-1.23606781 67.75457916 -1.23162659 66.79971619 -1.22705078 65.81591797 C-1.22689972 64.73494843 -1.22674866 63.65397888 -1.22659302 62.54025269 C-1.21627045 61.36939117 -1.20594788 60.19852966 -1.1953125 58.9921875 C-1.1924826 57.79643097 -1.18965271 56.60067444 -1.18673706 55.36868286 C-1.17551305 51.53735481 -1.15040431 47.70625778 -1.125 43.875 C-1.11497308 41.28255545 -1.10584673 38.69010725 -1.09765625 36.09765625 C-1.07556646 29.73169158 -1.04206706 23.36586229 -1 17 C-2.32 17 -3.64 17 -5 17 C-5 16.34 -5 15.68 -5 15 C-4.01 15 -3.02 15 -2 15 C-1.93941406 14.00097656 -1.87882813 13.00195312 -1.81640625 11.97265625 C-1.73261719 10.68230469 -1.64882813 9.39195312 -1.5625 8.0625 C-1.48128906 6.77472656 -1.40007813 5.48695313 -1.31640625 4.16015625 C-1 1 -1 1 0 0 Z " fill="#C3AA69" transform="translate(693,447)" />
<path d="M0 0 C-0.33 0.99 -0.66 1.98 -1 3 C-3.4765625 3.7734375 -3.4765625 3.7734375 -6.625 4.375 C-12.25256064 5.64941779 -15.69294643 7.17150794 -20 11 C-20.90316325 13.70948975 -21.146575 15.40135334 -21.20532227 18.19604492 C-21.22526749 19.03668991 -21.24521271 19.8773349 -21.26576233 20.74345398 C-21.28247482 21.64666885 -21.29918732 22.54988373 -21.31640625 23.48046875 C-21.33718735 24.40845779 -21.35796844 25.33644684 -21.37937927 26.29255676 C-21.44477323 29.2574624 -21.50371262 32.22245672 -21.5625 35.1875 C-21.60569487 37.1972748 -21.64930947 39.20704063 -21.69335938 41.21679688 C-21.80044427 46.14444032 -21.90174045 51.07217299 -22 56 C-21.34 56 -20.68 56 -20 56 C-20 56.66 -20 57.32 -20 58 C-22.97 58 -25.94 58 -29 58 C-29 57.34 -29 56.68 -29 56 C-28.34 56 -27.68 56 -27 56 C-27.11750652 48.64921242 -27.24233974 41.29857568 -27.37231445 33.94799805 C-27.41567788 31.44639928 -27.45735191 28.94477064 -27.49731445 26.44311523 C-27.55498271 22.85130808 -27.61868733 19.25965148 -27.68359375 15.66796875 C-27.70030624 14.54601608 -27.71701874 13.42406342 -27.73423767 12.26811218 C-27.75418289 11.22725967 -27.77412811 10.18640717 -27.79467773 9.11401367 C-27.81022202 8.19690109 -27.8257663 7.27978851 -27.84178162 6.33488464 C-27.912291 3.84418392 -27.912291 3.84418392 -29 1 C-26.69 1 -24.38 1 -22 1 C-21.67 2.98 -21.34 4.96 -21 7 C-20.319375 6.401875 -19.63875 5.80375 -18.9375 5.1875 C-12.7226646 0.55943108 -7.52352301 -0.46062386 0 0 Z " fill="#CDBC7A" transform="translate(541,461)" />
<path d="M0 0 C10.3614066 -0.50589146 16.80033148 1.4741822 24.91796875 8.04296875 C30.95212988 13.71485379 33.62918517 20.55022209 34.3125 28.75 C34.0178607 37.69316919 31.2660483 45.5582681 25 52 C18.24571651 57.96324128 11.85139594 59.35405584 3 59 C5.67644331 57.21570446 7.30792068 56.53334875 10.3125 55.6875 C17.38228204 53.33090599 20.70756909 49.99384856 24.375 43.625 C28.06154915 35.72664139 28.77201856 27.33690295 26.00390625 19 C24.82072672 16.52306342 23.5180988 14.28378712 22 12 C21.443125 11.05125 20.88625 10.1025 20.3125 9.125 C14.42924351 3.71876431 6.71931692 2.49802045 -1 2 C-0.67 1.34 -0.34 0.68 0 0 Z " fill="#AF9054" transform="translate(402,461)" />
<path d="M0 0 C1.18142578 -0.02900391 2.36285156 -0.05800781 3.58007812 -0.08789062 C10.97042355 -0.14111749 17.33279505 0.49816819 23.8125 4.3125 C24.3075 5.3025 24.3075 5.3025 24.8125 6.3125 C23.95092285 6.15313965 23.0893457 5.9937793 22.20166016 5.82958984 C-3.29763344 1.93911989 -30.70874675 6.57925617 -52.3828125 20.98046875 C-55.40178349 23.20875686 -58.32018971 25.5606973 -61.20703125 27.95703125 C-63.1875 29.3125 -63.1875 29.3125 -66.1875 29.3125 C-63.1875 26.3125 -60.1875 23.3125 -57.1875 20.3125 C-56.42308594 19.48105469 -55.65867188 18.64960938 -54.87109375 17.79296875 C-51.63888059 14.80540636 -48.31973961 12.84359369 -44.4375 10.8125 C-43.70176758 10.42449219 -42.96603516 10.03648437 -42.20800781 9.63671875 C-28.77900806 2.82251268 -14.95785744 0.12043363 0 0 Z " fill="#C8B16E" transform="translate(225.1875,438.6875)" />
<path d="M0 0 C2.97 0 5.94 0 9 0 C9 0.66 9 1.32 9 2 C8.154375 2.350625 7.30875 2.70125 6.4375 3.0625 C2.91622669 5.04721769 0.79898809 7.09049701 -1.953125 9.9765625 C-5.18218929 13.16865277 -8.74118367 15.93718432 -12.26953125 18.7890625 C-14.74421663 20.792885 -17.20001817 22.81137094 -19.625 24.875 C-20.25664063 25.40867187 -20.88828125 25.94234375 -21.5390625 26.4921875 C-23.25609532 28.04655749 -23.25609532 28.04655749 -24 31 C-23.44183594 31.24878906 -22.88367188 31.49757813 -22.30859375 31.75390625 C-19.5995577 33.21614398 -17.4303568 34.96844013 -15.0625 36.9375 C-14.10214844 37.7315625 -13.14179687 38.525625 -12.15234375 39.34375 C-9.93873598 41.19811045 -7.74835889 43.07727403 -5.56640625 44.96875 C-4.9933374 45.4625415 -4.42026855 45.95633301 -3.82983398 46.46508789 C-2.71605927 47.42702048 -1.6072461 48.3947362 -0.50415039 49.36889648 C2.51023281 51.97160512 5.20030657 53.77316172 9 55 C9 55.99 9 56.98 9 58 C4.60465444 58.54941819 2.0427561 58.41306174 -1.5625 55.75 C-3.06069905 54.52287587 -4.53645207 53.26825134 -6 52 C-7.10112295 51.05807966 -8.20272361 50.11671763 -9.3046875 49.17578125 C-11.1281128 47.61532377 -12.94917147 46.05240542 -14.7644043 44.48242188 C-19.38662104 40.48956807 -24.11573051 36.66966279 -29 33 C-25.39072074 25.09813134 -18.50439133 19.50728322 -12 14 C-10.19924364 12.46896045 -8.40778902 10.92692425 -6.625 9.375 C-5.37589844 8.30378906 -5.37589844 8.30378906 -4.1015625 7.2109375 C-1.89548215 4.89004256 -0.96626399 3.02621138 0 0 Z " fill="#8D6332" transform="translate(841,462)" />
<path d="M0 0 C6.90637369 0.36349335 13.07841027 4.04181416 17.87109375 8.89453125 C23.28964085 15.7454125 25 21.26249002 25 30 C7.18 30 -10.64 30 -29 30 C-29 29.01 -29 28.02 -29 27 C-12.83 27 3.34 27 20 27 C15.80455543 14.23777493 15.80455543 14.23777493 6.375 6.3125 C3.79547924 4.99703011 2.06100547 4.06100547 0 2 C0 1.34 0 0.68 0 0 Z " fill="#C1B075" transform="translate(651,461)" />
<path d="M0 0 C0 0.66 0 1.32 0 2 C-1.24136719 2.36351562 -2.48273437 2.72703125 -3.76171875 3.1015625 C-5.4039732 3.6083153 -7.04588262 4.11618721 -8.6875 4.625 C-9.50412109 4.86089844 -10.32074219 5.09679687 -11.16210938 5.33984375 C-16.85035047 7.13613041 -19.74749949 8.93910921 -23 14 C-24.27307019 18.30155393 -23.26935059 21.49845063 -21.1875 25.375 C-18.63770076 28.43475909 -17.06553863 29.84879907 -13.08203125 30.4140625 C-12.00308594 30.48367188 -10.92414062 30.55328125 -9.8125 30.625 C-8.72582031 30.69976563 -7.63914062 30.77453125 -6.51953125 30.8515625 C-5.27236328 30.92503906 -5.27236328 30.92503906 -4 31 C-4.33 31.99 -4.66 32.98 -5 34 C-12.49971474 34.44998288 -18.78499455 34.64253419 -25 30 C-28.46350444 26.35887995 -29.8688304 23.73799722 -30.25 18.6875 C-29.96871821 14.53859363 -29.35641613 12.42060405 -27 9 C-22.12479332 5.85806404 -17.34925172 3.90322727 -11.8125 2.25 C-11.11447266 2.02957031 -10.41644531 1.80914062 -9.69726562 1.58203125 C-6.28040604 0.5351913 -3.60740961 0 0 0 Z " fill="#AC8E54" transform="translate(768,487)" />
<path d="M0 0 C1.299375 -0.02126953 1.299375 -0.02126953 2.625 -0.04296875 C5 0.1875 5 0.1875 8 2.1875 C7.70179167 5.76599992 7.25754642 6.94976484 4.5625 9.4375 C1.05835656 11.83057357 -0.73171202 12.3441205 -4.9375 12.375 C-5.81277344 12.38917969 -6.68804687 12.40335938 -7.58984375 12.41796875 C-10 12.1875 -10 12.1875 -13 10.1875 C-12.52153935 5.88135411 -11.34073619 3.93869451 -8 1.1875 C-5.07345473 0.21198491 -3.05345004 0.02271912 0 0 Z " fill="#3B425C" transform="translate(234,546.8125)" />
<path d="M0 0 C11.84470327 -0.56905158 11.84470327 -0.56905158 17 3 C19 6 19 6 19.125 9.25 C17.56307325 14.45642251 14.40363865 16.96714381 10 20 C9.01 20.33 8.02 20.66 7 21 C6.3125 19.1875 6.3125 19.1875 6 17 C6.97850195 15.97895449 7.97980427 14.9793879 9 14 C9 12.68 9 11.36 9 10 C6.36 9.34 3.72 8.68 1 8 C1.99 7.67 2.98 7.34 4 7 C4 5.02 4 3.04 4 1 C2.68 0.67 1.36 0.34 0 0 Z " fill="#B39659" transform="translate(232,539)" />
<path d="M0 0 C1 2 1 2 0.56640625 3.671875 C-0.21680718 6.89115225 -0.0931263 9.94235945 -0.0625 13.25 C-0.05347656 14.51328125 -0.04445312 15.7765625 -0.03515625 17.078125 C-0.02355469 18.04234375 -0.01195312 19.0065625 0 20 C-5.7578125 18.2109375 -5.7578125 18.2109375 -7.9375 16.3125 C-9.6082025 12.67626514 -9.22418777 10.80142518 -8 7 C-5.5551637 4.3599877 -2.87571704 2.15515013 0 0 Z " fill="#AC894C" transform="translate(220,543)" />
<path d="M0 0 C4.62 0 9.24 0 14 0 C14 0.33 14 0.66 14 1 C10.04 1 6.08 1 2 1 C2 3.97 2 6.94 2 10 C6.29 10 10.58 10 15 10 C15 10.33 15 10.66 15 11 C10.71 11 6.42 11 2 11 C2 14.96 2 18.92 2 23 C5.96 23 9.92 23 14 23 C14 23.33 14 23.66 14 24 C9.38 24 4.76 24 0 24 C0 16.08 0 8.16 0 0 Z " fill="#7D725D" transform="translate(418,540)" />
<path d="M0 0 C5 2 5 2 7 5 C6.85466304 8.99676649 6.57509569 11.27649252 4.0625 14.4375 C2 16 2 16 0 16 C0 10.72 0 5.44 0 0 Z " fill="#A88144" transform="translate(244,540)" />
<path d="M0 0 C0.66 0 1.32 0 2 0 C3.66666667 1.66666667 5.33333333 3.33333333 7 5 C10.82456179 7.35793958 14.36434761 7.35652044 18.7578125 7.55859375 C19.86769531 7.77708984 19.86769531 7.77708984 21 8 C21.99 9.485 21.99 9.485 23 11 C14.9743397 11.55884675 8.24666309 10.6600545 1 7 C-0.8125 5.36328125 -0.8125 5.36328125 -2 4 C-1.34 2.68 -0.68 1.36 0 0 Z " fill="#875E32" transform="translate(324,510)" />
<path d="M0 0 C0 1.98 0 3.96 0 6 C-3.96 6.99 -7.92 7.98 -12 9 C-12 7.02 -12 5.04 -12 3 C-11.34 3 -10.68 3 -10 3 C-10 2.34 -10 1.68 -10 1 C-6.78548731 -0.60725635 -3.56387464 -0.05748185 0 0 Z " fill="#E2D488" transform="translate(236,540)" />
<path d="M0 0 C1.32 0.66 2.64 1.32 4 2 C0.69914493 7.16655577 -3.29286457 9.23581594 -9 11 C-12.33189748 11.55608859 -15.62630584 11.85913594 -19 12 C-19 11.01 -19 10.02 -19 9 C-18.3709375 8.92523437 -17.741875 8.85046875 -17.09375 8.7734375 C-9.91884539 7.67126842 -5.13399636 5.13399636 0 0 Z " fill="#C5B476" transform="translate(664,509)" />
<path d="M0 0 C0.33 1.32 0.66 2.64 1 4 C-6.34954646 9.58565531 -11.77553401 11.36897864 -21 11 C-18.31578277 9.21052185 -16.18370277 8.26907857 -13.1875 7.1875 C-9.18402903 5.63871196 -3.738814 0 0 0 Z " fill="#E3D992" transform="translate(603,509)" />
<path d="M0 0 C0 0.99 0 1.98 0 3 C-5.89738492 5.29342747 -10.66606918 6.34548714 -17 6 C-16.67 4.68 -16.34 3.36 -16 2 C-15.22914063 1.93941406 -14.45828125 1.87882813 -13.6640625 1.81640625 C-12.15972656 1.69072266 -12.15972656 1.69072266 -10.625 1.5625 C-9.62726563 1.48128906 -8.62953125 1.40007813 -7.6015625 1.31640625 C-4.67763349 0.96079326 -3.00138805 0 0 0 Z " fill="#DDCE84" transform="translate(239,557)" />
<path d="M0 0 C0 0.66 0 1.32 0 2 C-1.01320313 2.32613281 -2.02640625 2.65226562 -3.0703125 2.98828125 C-4.42195504 3.42944236 -5.77351307 3.87086242 -7.125 4.3125 C-7.79015625 4.52583984 -8.4553125 4.73917969 -9.140625 4.95898438 C-13.29475634 6.32333143 -17.12504869 7.94180935 -21 10 C-20.83203125 8.16796875 -20.83203125 8.16796875 -20 6 C-17.63671875 4.55078125 -17.63671875 4.55078125 -14.6875 3.3125 C-13.23923828 2.68794922 -13.23923828 2.68794922 -11.76171875 2.05078125 C-7.65121829 0.48681432 -4.40340539 -0.12231682 0 0 Z " fill="#AC8F55" transform="translate(754,462)" />
<path d="M0 0 C7.75 -0.125 7.75 -0.125 10 1 C9.67 3.31 9.34 5.62 9 8 C6.36 8 3.72 8 1 8 C1.99 7.67 2.98 7.34 4 7 C4 5.02 4 3.04 4 1 C2.68 0.67 1.36 0.34 0 0 Z " fill="#C4AE6E" transform="translate(232,539)" />
<path d="M0 0 C0.33 0 0.66 0 1 0 C1.66 4.62 2.32 9.24 3 14 C-1 12 -1 12 -3 9 C-2.54716981 2.54716981 -2.54716981 2.54716981 0 0 Z " fill="#966D38" transform="translate(214,548)" />
<path d="M0 0 C0 0.66 0 1.32 0 2 C-6.435 3.98 -6.435 3.98 -13 6 C-13.66 5.01 -14.32 4.02 -15 3 C-13.25183142 2.49363393 -11.50137737 1.99515381 -9.75 1.5 C-8.77546875 1.2215625 -7.8009375 0.943125 -6.796875 0.65625 C-4 0 -4 0 0 0 Z " fill="#A7874E" transform="translate(768,487)" />
<path d="M0 0 C0.66 0.33 1.32 0.66 2 1 C1.67 3.31 1.34 5.62 1 8 C-0.65 8.33 -2.3 8.66 -4 9 C-4 7.02 -4 5.04 -4 3 C-3.34 3 -2.68 3 -2 3 C-2 2.34 -2 1.68 -2 1 C-1.34 0.67 -0.68 0.34 0 0 Z " fill="#DCCB81" transform="translate(228,540)" />
<path d="M0 0 C3.63 0 7.26 0 11 0 C11.33 0.66 11.66 1.32 12 2 C7.38 2.66 2.76 3.32 -2 4 C-1.34 2.68 -0.68 1.36 0 0 Z " fill="#D5C47E" transform="translate(640,461)" />
<path d="M0 0 C0.33 0.66 0.66 1.32 1 2 C0.34 2 -0.32 2 -1 2 C-0.67 4.31 -0.34 6.62 0 9 C-0.99 9.33 -1.98 9.66 -3 10 C-4.35439668 7.29120665 -4.06501451 4.99066732 -4 2 C-2.68 1.34 -1.36 0.68 0 0 Z " fill="#C6AE6B" transform="translate(225,541)" />
<path d="M0 0 C1.32 1.32 2.64 2.64 4 4 C3.875 7.6875 3.875 7.6875 3 11 C2.01 11.495 2.01 11.495 1 12 C0.67 8.04 0.34 4.08 0 0 Z " fill="#8D6535" transform="translate(247,541)" />
<path d="M0 0 C2.64 0 5.28 0 8 0 C6.68 0.33 5.36 0.66 4 1 C4 1.66 4 2.32 4 3 C4.99 3.33 5.98 3.66 7 4 C4.36 4 1.72 4 -1 4 C-0.67 2.68 -0.34 1.36 0 0 Z " fill="#C8B677" transform="translate(223,559)" />
<path d="M0 0 C0.99 0 1.98 0 3 0 C3 4.29 3 8.58 3 13 C1.68 11.35 0.36 9.7 -1 8 C-0.34 8 0.32 8 1 8 C1.20970559 3.85906302 1.20970559 3.85906302 0 0 Z " fill="#A9905A" transform="translate(240,539)" />
<path d="M0 0 C1.32 0.33 2.64 0.66 4 1 C1.36 3.64 -1.28 6.28 -4 9 C-4.66 8.67 -5.32 8.34 -6 8 C-4.73046875 6.50260417 -3.4609375 5.00520833 -2.19140625 3.5078125 C-0.9121848 1.99405921 -0.9121848 1.99405921 0 0 Z " fill="#886D47" transform="translate(260,545)" />
<path d="M0 0 C-0.33 0.66 -0.66 1.32 -1 2 C-3.64860427 2.59355614 -6.29197322 2.74209269 -9 3 C-9 2.01 -9 1.02 -9 0 C-2.25 -1.125 -2.25 -1.125 0 0 Z " fill="#CCBC7B" transform="translate(654,518)" />
<path d="M0 0 C0.66 0.33 1.32 0.66 2 1 C0.02 3.97 -1.96 6.94 -4 10 C-4.66 9.67 -5.32 9.34 -6 9 C-3.375 2.25 -3.375 2.25 0 0 Z " fill="#7D5E3D" transform="translate(159,469)" />
<path d="M0 0 C0.66 0 1.32 0 2 0 C2 1.98 2 3.96 2 6 C1.01 6.33 0.02 6.66 -1 7 C-1.04254356 5.00045254 -1.04080783 2.99958364 -1 1 C-0.67 0.67 -0.34 0.34 0 0 Z " fill="#F1E696" transform="translate(230,540)" />
<path d="M0 0 C3.93673644 1.31224548 6.22719294 2.91910327 9 6 C6.03 5.01 3.06 4.02 0 3 C0 2.01 0 1.02 0 0 Z " fill="#7C6346" transform="translate(249,443)" />
</svg>